<svg width="33" height="15" viewBox="0 0 33 15" fill="none" xmlns="http://www.w3.org/2000/svg">
<path d="M30.305 7.77371C29.3243 8.65001 28.4098 9.47009 27.4937 10.2886C26.4517 11.2196 25.4096 12.1505 24.3661 13.0768C24.1378 13.2799 23.9754 13.5004 24.0855 13.8256C24.2329 14.2638 24.7267 14.3614 25.1154 14.0162C26.0866 13.1571 27.0531 12.2901 28.0196 11.4263C29.378 10.2126 30.7348 8.99894 32.0917 7.78366C32.5875 7.34004 32.5934 7.02162 32.1088 6.58367C29.8123 4.5105 27.5158 2.44047 25.2224 0.364178C24.9707 0.137326 24.7124 -0.00484174 24.3839 0.172736C23.9894 0.384575 23.975 0.85356 24.3596 1.20328C25.1803 1.95154 26.0089 2.69042 26.8327 3.43399C27.9709 4.45956 29.1074 5.48668 30.3127 6.57525C30.1056 6.57446 29.977 6.57397 29.8484 6.57348C20.2559 6.54944 10.6618 6.52539 1.06928 6.50135C0.981431 6.50102 0.895154 6.50069 0.807308 6.50035C0.314731 6.50161 0.022084 6.72952 0.0284912 7.10604C0.0333238 7.48411 0.318003 7.70011 0.821554 7.70046C10.0282 7.72303 19.2348 7.74717 28.4414 7.76974C29.0328 7.77043 29.6257 7.77269 30.305 7.77371Z" fill="#111111"/>
</svg>
